<?xml version="1.0" standalone="no"?>
<!DOCTYPE svg PUBLIC "-//W3C//DTD SVG 20010904//EN"
 "http://www.w3.org/TR/2001/REC-SVG-20010904/DTD/svg10.dtd">
<svg version="1.0" xmlns="http://www.w3.org/2000/svg"
 width="900.000000pt" height="500.000000pt" viewBox="0 0 900.000000 500.000000"
 preserveAspectRatio="xMidYMid meet">

<g transform="translate(0.000000,500.000000) scale(0.100000,-0.100000)"
fill="#000000" stroke="none">
<path d="M830 3244 c-87 -18 -155 -40 -224 -75 -245 -122 -396 -350 -413 -621
-17 -275 95 -509 320 -668 260 -185 606 -181 887 10 55 37 150 131 150 148 0
5 -49 54 -110 109 l-110 99 -57 -56 c-184 -178 -455 -184 -634 -14 -288 276
-94 765 304 764 130 0 235 -43 328 -132 l51 -49 86 80 c48 43 98 90 110 104
l24 25 -24 32 c-31 42 -149 131 -223 168 -109 54 -189 73 -320 77 -66 2 -131
1 -145 -1z"/>
<path d="M1766 3183 c10 -16 141 -205 291 -422 l273 -395 0 -293 0 -293 155 0
155 0 0 298 0 298 285 412 c157 226 285 413 285 416 0 3 -78 6 -173 6 l-174 0
-187 -280 c-102 -155 -190 -279 -194 -276 -5 3 -91 129 -192 280 l-183 276
-180 0 -179 0 18 -27z"/>
<path d="M3520 2495 l0 -715 155 0 155 0 0 715 0 715 -155 0 -155 0 0 -715z"/>
<path d="M4380 2495 l0 -715 520 0 520 0 0 145 0 145 -370 0 -370 0 0 425 0
425 370 0 370 0 0 145 0 145 -520 0 -520 0 0 -715z"/>
<path d="M5870 2495 l0 -715 150 0 150 0 0 465 c0 256 3 465 8 465 4 -1 163
-210 355 -465 l347 -465 135 0 135 0 0 715 0 715 -150 0 -150 0 -2 -452 -3
-452 -337 452 -337 452 -151 0 -150 0 0 -715z"/>
<path d="M7560 3065 l0 -145 235 0 235 0 0 -570 0 -570 155 0 155 0 0 570 0
570 235 0 235 0 0 145 0 145 -625 0 -625 0 0 -145z"/>
<path d="M5011 2678 c-71 -37 -104 -86 -109 -162 -3 -49 0 -71 17 -103 76
-150 281 -151 355 -2 14 29 26 69 26 89 0 54 -45 137 -92 168 -57 37 -137 41
-197 10z"/>
</g>
</svg>
