<?xml version="1.0" standalone="no"?>
<!DOCTYPE svg PUBLIC "-//W3C//DTD SVG 20010904//EN"
 "http://www.w3.org/TR/2001/REC-SVG-20010904/DTD/svg10.dtd">
<svg version="1.0" xmlns="http://www.w3.org/2000/svg"
 width="1200.000000pt" height="480.000000pt" viewBox="0 0 1200.000000 480.000000"
 preserveAspectRatio="xMidYMid meet">

<g transform="translate(0.000000,480.000000) scale(0.100000,-0.100000)"
fill="#000000" stroke="none">
<path d="M4289 4700 c-304 -38 -543 -216 -660 -491 -36 -84 -74 -226 -84 -316
l-7 -63 -184 0 -184 0 0 -130 0 -130 180 0 180 0 0 -1330 0 -1330 200 0 200 0
2 1328 3 1327 463 3 c254 1 462 0 462 -2 0 -3 -44 -49 -97 -103 -266 -267
-419 -609 -454 -1011 -9 -102 -9 -164 0 -265 22 -239 65 -394 166 -602 93
-193 210 -347 355 -472 395 -339 907 -414 1358 -198 148 71 246 140 363 255
243 239 396 546 450 900 15 96 18 344 6 465 l-8 80 27 -35 c111 -144 275 -247
663 -414 317 -137 466 -223 568 -325 216 -216 152 -550 -131 -690 -115 -56
-202 -74 -371 -74 -129 1 -164 4 -250 27 -170 44 -324 127 -492 263 l-103 83
0 -238 0 -239 58 -31 c194 -102 521 -157 787 -132 622 59 965 365 968 865 1
135 -15 210 -65 310 -82 166 -244 305 -503 430 -691 335 -698 339 -784 419
-64 61 -86 102 -102 189 -16 88 0 208 41 294 59 127 190 221 364 258 118 26
333 17 441 -19 143 -47 201 -105 290 -291 54 -112 824 -1974 832 -2010 8 -39
-283 -670 -472 -1023 l-77 -142 197 2 197 3 75 175 c120 278 936 2256 993
2405 l11 30 41 -78 c51 -98 136 -187 248 -259 104 -68 163 -98 450 -226 358
-160 487 -240 575 -355 68 -89 88 -152 83 -267 -3 -81 -8 -105 -36 -163 -96
-205 -370 -319 -687 -287 -141 14 -231 41 -370 110 -123 61 -238 140 -360 249
l-70 63 -3 -242 c-3 -275 -12 -244 95 -306 249 -142 679 -187 1033 -108 408
92 657 315 725 653 26 124 17 322 -17 413 -78 208 -246 365 -542 508 -67 32
-206 99 -311 149 -458 221 -540 295 -552 496 -13 213 78 381 253 465 94 45
182 63 319 62 212 0 372 -55 590 -203 61 -41 113 -76 118 -77 4 -2 6 92 5 209
l-3 213 -75 24 c-174 55 -258 66 -515 66 -198 1 -255 -2 -325 -18 -224 -49
-379 -120 -496 -229 -97 -90 -138 -156 -200 -317 -28 -74 -173 -439 -322 -810
-148 -371 -280 -708 -293 -748 -13 -39 -25 -72 -29 -72 -3 0 -16 37 -29 82
-13 46 -150 396 -306 778 -156 382 -333 820 -395 972 l-112 277 -106 25 c-251
58 -381 76 -565 76 -426 0 -776 -131 -942 -352 -93 -124 -124 -214 -133 -386
l-7 -124 -57 114 c-173 341 -479 608 -820 712 -120 37 -280 59 -380 51 -46 -3
-448 -8 -895 -11 l-811 -5 -8 57 c-9 77 1 228 20 290 23 74 87 167 141 204 79
55 139 70 272 70 224 0 381 -52 534 -175 l79 -65 0 210 0 210 -27 11 c-52 20
-138 38 -223 48 -126 15 -356 21 -431 11z m1511 -1165 c234 -56 436 -220 582
-470 247 -425 263 -1027 39 -1468 -141 -276 -343 -455 -592 -523 -88 -24 -262
-24 -349 -1 -155 42 -293 128 -416 261 -167 179 -278 414 -332 701 -23 125
-23 435 0 560 27 143 65 261 122 381 67 138 118 215 210 312 210 220 476 310
736 247z"/>
<path d="M110 2800 l0 -1890 220 0 220 0 0 1890 0 1890 -220 0 -220 0 0 -1890z"/>
<path d="M2048 3825 c-109 -18 -254 -66 -335 -111 -108 -60 -293 -221 -293
-254 0 -5 -4 -10 -10 -10 -6 0 -10 67 -10 180 l0 180 -195 0 -195 0 0 -1450 0
-1450 200 0 200 0 2 1093 3 1092 34 70 c25 52 56 92 120 155 96 95 189 152
316 197 69 24 95 27 195 27 128 0 203 -15 304 -64 128 -61 234 -174 287 -307
l24 -58 3 -1103 2 -1102 200 0 200 0 -2 1178 -3 1177 -26 63 c-97 230 -290
403 -534 482 -59 19 -97 23 -235 26 -109 2 -195 -2 -252 -11z"/>
</g>
</svg>
